<?xml version="1.0" encoding="utf-8"?>
<!-- Generator: Adobe Illustrator 25.2.0, SVG Export Plug-In . SVG Version: 6.00 Build 0)  -->
<svg version="1.1" id="Layer_1" xmlns:v="https://vecta.io/nano" opacity="0.1"
	 xmlns="http://www.w3.org/2000/svg" xmlns:xlink="http://www.w3.org/1999/xlink" x="0px" y="0px" viewBox="0 0 193 230"
	 style="enable-background:new 0 0 193 230;" xml:space="preserve">
<style type="text/css">
	.st0{fill:#FFFFFF;}
	.st1{fill:#FAF1A9;}
	.st2{fill:#DFB5A7;}
	.st3{fill:#E1BDFC;}
	.st4{fill:#F6E06E;}
	.st5{fill:#DDA86A;}
	.st6{fill:#3C122C;}
	.st7{fill:#FAE58F;}
	.st8{fill:#F9BA8F;}
	.st9{fill:#434B56;}
</style>
<g>
	<g>
		<path class="st0" d="M213,89.7l-9.7-45.9c-0.9-3.9-4.5-7.9-11.1-7.9h-15l0.3-6.6c0.3-5.5-4.2-10.2-9.9-10.6l-84.2-5.2
			c-2.3-0.1-3.8,2.2-2.7,4.1l14.1,24c-6,38.8-14.1,75.9-7.5,101.4c1.6,6.3,7.6,10.8,14.4,10.8c17.2,0.1,51.1,0.2,68.4,0.1
			c6.8,0,12.7-4.5,14.4-10.8c6.2-23.6-0.3-57.1-6-92.7h5.2c3.6,0,6.6,2.4,7.3,5.8l7.3,36.3c0.7,3.5,3.9,5.9,7.4,5.9
			c0.5,0,1,0,1.4-0.1C211.1,97.4,213.8,93.6,213,89.7z"/>
		<path class="st1" d="M94.8,40.9c-6,39-14.2,76.4-7.6,102.1c1.6,6.3,7.6,10.8,14.4,10.8c17.2,0.1,51.1,0.2,68.4,0.1
			c6.8,0,12.7-4.5,14.4-10.8c6.7-25.7-1.5-63.1-7.5-102.2H94.8z"/>
		<path class="st2" d="M160.1,41.8c4.8,31.8,10.7,62,5.5,83c-1.4,5.4-6.2,9.3-11.8,9.3c-14.1,0.1-41.9-0.1-56-0.1
			c-5.6,0-10.4-3.9-11.8-9.3c-0.5-2-0.9-4.1-1.2-6.3c-0.1,9,0.6,17.2,2.5,24.5c1.6,6.3,7.6,10.8,14.4,10.8
			c17.2,0.1,51.1,0.2,68.4,0.1c6.8,0,12.7-4.5,14.4-10.8c6.7-25.5-1.4-62.5-7.4-101.3L160.1,41.8z"/>
		<path class="st3" d="M159.9,27l-0.5,10.5c0.2,1.1,0.3,2.3,0.5,3.4h17l0.5-11.7c0.3-5.5-4.2-10.2-9.9-10.6l-16.6-1v0.2l0.8,0.1
			C156.5,18.2,160.1,22.2,159.9,27z"/>
		<path class="st0" d="M102.5,122.9l-8.6-10.8c-2.2-2.7-1.6-6.6,1.2-8.7l10.9-8c2.8-2.1,6.9-1.5,9.1,1.2l8.6,10.8
			c2.2,2.7,1.6,6.6-1.2,8.7l-10.9,8C108.7,126.1,104.7,125.6,102.5,122.9z"/>
		<ellipse class="st4" cx="155.8" cy="124.1" rx="23.6" ry="22.7"/>
		<path class="st5" d="M167.6,104.4c0.1,7.4-0.5,14.3-2.1,20.4c-1.4,5.4-6.2,9.3-11.8,9.3c-5,0-11.8,0-19.1,0
			c3.9,7.5,11.9,12.6,21.2,12.6c13,0,23.6-10.2,23.6-22.7C179.4,115.7,174.7,108.4,167.6,104.4L167.6,104.4z"/>
		<ellipse class="st1" cx="155.8" cy="124.1" rx="17" ry="16.3"/>
		<path class="st2" d="M167.4,112.1c-0.3,4.5-0.9,8.8-1.8,12.7c-1.4,5.4-6.2,9.3-11.8,9.3c-3.2,0-7.1,0-11.3,0
			c3.1,3.8,7.9,6.2,13.4,6.2c9.4,0,17-7.3,17-16.3C172.8,119.4,170.7,115.1,167.4,112.1z"/>
		<ellipse class="st4" cx="120.3" cy="78.9" rx="23.2" ry="22.3"/>
		<ellipse class="st1" cx="120.3" cy="78.9" rx="16.7" ry="16"/>
		<path class="st0" d="M153.5,92l-10.9-8.7c-2.7-2.2-3.1-6.1-0.8-8.7l8.8-10.1c2.3-2.6,6.4-3,9.1-0.8l10.9,8.7
			c2.7,2.2,3.1,6.1,0.8,8.7l-8.8,10.1C160.4,93.9,156.3,94.2,153.5,92z"/>
		<path class="st3" d="M170.6,72.4l-6.6-5.3c1,6.8,1.9,13.3,2.5,19.7l4.9-5.6C173.7,78.5,173.3,74.6,170.6,72.4z"/>
		<path class="st0" d="M111.2,136l1.5-13.5c0.4-3.4,3.5-5.9,7.1-5.5l13.6,1.4c3.6,0.4,6.1,3.4,5.8,6.8l-1.5,13.5
			c-0.4,3.4-3.5,5.9-7.1,5.5l-13.6-1.4C113.4,142.5,110.8,139.4,111.2,136L111.2,136z"/>
		<path class="st3" d="M117,142.8l13.6,1.3c3.6,0.4,6.8-2.1,7.1-5.6l0.5-4.4c-8.6,0-18.3,0-26.8-0.1l-0.2,1.9
			C110.8,139.4,113.4,142.5,117,142.8L117,142.8z"/>
		<path class="st4" d="M47.3,144.6c9.1,9.3,23,11.6,34.4,6.9c0.4-0.2,0.8-0.1,1.1,0.2l0,0c3.4,3.4,9.3,3.3,13.2-0.2
			c3.9-3.6,4.4-9.2,1-12.6l0,0c-0.3-0.3-0.3-0.7-0.1-1.1c5.5-10.7,3.8-24.1-5.3-33.4c-9.1-9.3-23-11.6-34.4-6.9
			c-0.4,0.2-0.8,0.1-1.1-0.2l0,0c-3.4-3.4-9.3-3.3-13.2,0.2c-3.9,3.6-4.4,9.2-1,12.6l0,0c0.3,0.3,0.3,0.7,0.1,1.1
			C36.5,121.9,38.2,135.3,47.3,144.6L47.3,144.6z"/>
		<path class="st5" d="M97,138.9c-0.3-0.3-0.3-0.7-0.1-1.1c5.5-10.7,3.8-24.1-5.3-33.4c-8.5-8.6-21.1-11.3-32.1-7.8
			c6.9,0.5,16.2-0.1,22.6,6.5c4.4,4.6,11.4,23.9-1,34.6s-27.5,4.4-34.7-3c-4.8-4.9-7-11.3-6.7-17.5c-2.4,9.4,0.1,19.8,7.6,27.4
			c9.1,9.3,23,11.6,34.4,6.9c0.4-0.2,0.8-0.1,1.1,0.2l0,0c3.4,3.4,9.3,3.3,13.2-0.2C99.9,148,100.4,142.3,97,138.9L97,138.9
			L97,138.9z"/>
		<path class="st1" d="M54.7,26.4l2.9,7.9c0.1,0.3,0.4,0.6,0.7,0.7l7.3,3.2c1,0.4,1,2,0,2.5l-7.3,3.2c-0.3,0.1-0.6,0.4-0.7,0.7
			l-2.9,7.9c-0.4,1.1-1.9,1.1-2.3,0l-2.9-7.9c-0.1-0.3-0.4-0.6-0.7-0.7l-7.3-3.2c-1-0.4-1-2,0-2.5l7.3-3.2c0.3-0.1,0.6-0.4,0.7-0.7
			l2.9-7.9C52.9,25.3,54.3,25.3,54.7,26.4z"/>
		<ellipse class="st4" cx="163" cy="-8.1" rx="6.4" ry="6.1"/>
		<ellipse class="st4" cx="95.1" cy="-4" rx="2.8" ry="2.6"/>
		<path class="st1" d="M198.7-1.7l2.2,5.9c0.1,0.3,0.3,0.4,0.5,0.5l5.4,2.3c0.8,0.3,0.8,1.5,0,1.8l-5.4,2.3
			c-0.2,0.1-0.4,0.3-0.5,0.5l-2.2,5.9c-0.3,0.8-1.4,0.8-1.7,0l-2.2-5.9c-0.1-0.3-0.3-0.4-0.5-0.5l-5.4-2.3c-0.8-0.3-0.8-1.5,0-1.8
			l5.4-2.3c0.2-0.1,0.4-0.3,0.5-0.5l2.2-5.9C197.3-2.5,198.4-2.5,198.7-1.7z"/>
	</g>
	<g>
		<g>
			<path class="st6" d="M216.5,88.8l-9.7-45.9v-0.1c-1.2-5.3-6.2-10.6-14.6-10.6h-11.3l0.1-3.1c0.3-7.3-5.6-13.7-13.2-14.2L83.6,9.7
				c-2.4-0.1-4.6,1-5.9,2.9s-1.3,4.3-0.2,6.3l13.5,23c-0.9,5.6-1.8,11.3-2.7,16.7c-2,12.2-4,24.2-5.3,35.6c-8-3.4-17.3-3.8-25.7-0.8
				c-2.2-1.6-4.8-2.4-7.7-2.4c-3.4,0.1-6.6,1.4-9.2,3.7c-2.5,2.3-4.1,5.4-4.3,8.6c-0.2,2.8,0.5,5.4,2.1,7.5
				c-5.4,12-2.9,26.2,6.6,35.8s24.1,12.9,36.9,8.3c2.1,1.6,4.7,2.4,7.5,2.4c0.1,0,0.2,0,0.3,0c2.1,0,4.2-0.6,6.1-1.5
				c1.9,0.7,4,1,6.2,1.1c14.4,0.1,38,0.2,55.7,0.2c4.7,0,9.1,0,12.7,0c8.4,0,15.7-5.6,17.8-13.4c5.8-22.3,0.8-52.8-4.5-85.1
				c-0.3-1.7-0.6-3.4-0.8-5.1h1c1.9,0,3.5,1.3,3.8,3l7.3,36.3c1,5,5.6,8.7,10.9,8.7c0.7,0,1.4-0.1,2.1-0.2c2.9-0.5,5.4-2.1,7.1-4.5
				C216.5,94.5,217.1,91.7,216.5,88.8L216.5,88.8z M84.4,16.7l83,5.1c3.8,0.2,6.8,3.4,6.6,7L173.5,39h-76L84.4,16.7z M89.2,150.7
				c-1.5,0-2.8-0.5-3.8-1.4c-0.9-0.9-2.1-1.4-3.3-1.4c-0.6,0-1.2,0.1-1.8,0.4c-10.4,4.3-22.6,1.8-30.4-6.1s-9.7-19.8-4.7-29.5
				c0.8-1.6,0.5-3.6-0.7-4.9l0,0c-0.9-0.9-1.4-2.3-1.3-3.7c0.1-1.5,0.9-3,2.1-4.1s2.8-1.8,4.4-1.8c1.5,0,2.8,0.5,3.7,1.4l0,0
				c1.3,1.3,3.3,1.7,5.1,1c10.4-4.3,22.6-1.8,30.4,6.1c7.8,7.9,9.7,19.8,4.7,29.5c-0.9,1.7-0.5,3.7,0.8,5c2,2.1,1.6,5.6-0.8,7.8
				C92.4,150,90.8,150.7,89.2,150.7L89.2,150.7z M125.3,80.8h9.5c-0.4,2.4-1.4,4.6-2.8,6.4L125.3,80.8z M128.9,90.1
				c-1.9,1.3-4.2,2.2-6.6,2.6v-8.9L128.9,90.1z M122.2,73.8v-8.9c2.5,0.3,4.7,1.2,6.6,2.6L122.2,73.8z M125.3,76.7l6.7-6.4
				c1.4,1.8,2.4,4,2.8,6.4H125.3z M120.3,60.7c-10.4,0-18.9,8.1-18.9,18.1s8.5,18.1,18.9,18.1c9.4,0,17.2-6.6,18.6-15.2
				c0.4,0.9,1,1.8,1.7,2.5c-2.4,8.6-10.6,14.9-20.3,14.9c-11.6,0-21.1-9.1-21.1-20.2s9.5-20.2,21.1-20.2c9.5,0,17.5,6,20.1,14.3
				l-0.2,0.2c-0.6,0.7-1.1,1.5-1.4,2.3C137.1,67,129.5,60.7,120.3,60.7z M114.9,80.8l-6.4,6.2c-1.4-1.8-2.3-3.9-2.6-6.2H114.9z
				 M105.9,76.7c0.4-2.3,1.3-4.4,2.6-6.2l6.4,6.2H105.9z M118,83.7v8.9c-2.4-0.4-4.6-1.3-6.5-2.7L118,83.7z M111.5,67.6
				c1.9-1.4,4.1-2.3,6.5-2.7v8.9L111.5,67.6z M105.3,98.4c3.5,2.5,7.7,4.1,12.3,4.6l4.4,5.5c1.5,1.8,1.1,4.5-0.8,5.9l-0.6,0.5h-0.5
				c-2.3-0.2-4.5,0.4-6.3,1.8c-1.8,1.4-2.9,3.3-3.1,5.5l-0.2,0.2c-1.9,1.4-4.7,1-6.1-0.8l-0.9-1.1c-0.8-5.6-3-11-6.7-15.6
				L105.3,98.4z M153.5,128.9v9.1c-2.5-0.4-4.8-1.3-6.7-2.7L153.5,128.9z M143.8,132.4c-2.4-3.1-2.6-6.4-2.6-6.4h9.3L143.8,132.4z
				 M146.8,112.6c1.9-1.4,4.2-2.4,6.7-2.7v9.1L146.8,112.6z M150.5,121.9h-9.4c0.4-2.4,1.3-4.5,2.7-6.4L150.5,121.9z M155.8,142.3
				c10.6,0,19.1-8.2,19.1-18.4c0-10.1-8.6-18.4-19.1-18.4c-8.3,0-15.3,5.1-18,12.1c-0.6-0.5-1.3-0.8-2.1-1.1
				c3.1-7.8,10.9-13.3,20.1-13.3c11.8,0,21.5,9.3,21.5,20.6s-9.6,20.6-21.5,20.6c-6.3,0-12-2.6-15.9-6.8l0.3-3.2
				C143.7,139.3,149.4,142.3,155.8,142.3L155.8,142.3z M160.8,121.9l6.9-6.6c1.5,1.9,2.5,4.1,2.9,6.6H160.8z M170.5,126
				c-0.4,2.4-1.4,4.7-2.9,6.6l-6.9-6.6H170.5z M157.8,119v-9.2c2.5,0.3,4.9,1.3,6.8,2.6L157.8,119z M164.6,135.4
				c-2,1.4-4.3,2.3-6.8,2.6v-9.2L164.6,135.4z M136.1,121.7c0.8,1,1,2.2,0.9,3.3l-1.4,13.2c-0.2,2.3-2.4,4-4.8,3.7l-13.6-1.3
				c-2.4-0.2-4.1-2.3-3.9-4.6l1.5-13.5c0.1-1.1,0.7-2.1,1.6-2.8c0.8-0.6,1.7-0.9,2.7-0.9c0.2,0,14,1.4,14,1.4
				C134.3,120.3,135.3,120.8,136.1,121.7L136.1,121.7z M180.9,142.1c-1.3,4.8-5.8,8.2-10.9,8.3c-17,0.1-68.5-0.2-68.6-0.2
				c2.2-4.1,2-8.9-0.6-12.5c1.7-3.7,2.6-7.6,2.8-11.5c0.9,0.5,2.3,0.8,3.4,1c1.3,0.1,2.3-0.1,3.1-0.3l-0.9,8.7
				c-0.2,2.2,0.4,4.4,1.9,6.1c1.5,1.7,3.5,2.8,5.8,3l13.6,1.3c0.3,0,0.6,0,0.9,0c3,0,5.7-1.5,7.3-3.9c4.6,4,10.6,6.4,17.3,6.4
				c14.2,0,25.8-11.1,25.8-24.7c0-13.6-11.6-24.7-25.8-24.7c-11.3,0-20.9,7-24.4,16.7l-5.6-0.6c1.8-2.8,1.7-6.5-0.5-9.3l-2.4-3
				c9.8-1,17.9-7.4,21.2-16l8,6.4c1.6,1.3,4.2,2.1,6.3,1.9c2.3-0.2,4.4-1.2,5.9-2.9l8.7-10c1.5-1.7,2.2-3.8,2-6.1
				c-0.2-2.2-1.3-4.2-3.1-5.6l-10.8-8.7c-1.8-1.4-4-2.1-6.3-1.9s-4.4,1.2-5.9,2.9l-5.4,6.2c-3.9-8.7-12.9-14.7-23.3-14.7
				c-14,0-25.4,10.9-25.4,24.3c0,6.5,2.7,12.5,7.1,16.8l-8.1,6l0,0c-1.3-1.3-2.6-2.4-4.1-3.4C91.2,86,93.4,73,95.5,59.8
				c0.9-5.5,1.8-11.1,2.7-16.7h75.5c0.9,5.6,1.8,11.2,2.7,16.6C181.5,91.4,186.4,121.2,180.9,142.1L180.9,142.1z M143.5,75.7l8.7-10
				c0.7-0.9,1.8-1.4,3-1.5s2.3,0.2,3.2,1l10.8,8.7c0.9,0.7,1.4,1.7,1.5,2.8c0.1,1.1-0.3,2.2-1,3.1l-8.7,10c-0.7,0.9-1.8,1.4-3,1.5
				s-2.3-0.2-3.2-1L144,81.6c-0.9-0.7-1.4-1.7-1.5-2.8C142.4,77.6,142.8,76.5,143.5,75.7z M208.9,93c-0.6,0.9-1.5,1.4-2.6,1.6
				c-0.3,0-0.5,0.1-0.8,0.1c-1.9,0-3.6-1.3-3.9-3.1l-7.3-36.3c-1-5-5.5-8.6-10.8-8.6h-2.2c-0.3-1.9-0.6-3.8-0.9-5.7l0.1-2h11.6
				c4.7,0,7.1,2.7,7.7,5.2l9.7,45.8C209.7,91.2,209.5,92.2,208.9,93z"/>
			<path class="st0" d="M50.9,120.3c-0.3,0-0.6,0-0.9-0.1c-1.9-0.5-3-2.4-2.5-4.2c0.3-1.1,0.7-2.2,1.2-3.3c0.7-1.7,2.8-2.6,4.6-1.9
				c1.8,0.7,2.7,2.7,1.9,4.5c-0.4,0.8-0.6,1.7-0.9,2.5C53.9,119.3,52.4,120.3,50.9,120.3z"/>
			<path class="st0" d="M52.2,134.9c-1.3,0-2.5-0.7-3.2-1.9c-0.9-1.8-1.7-3.6-2.3-5.5c-0.5-1.8,0.5-3.7,2.4-4.2
				c1.9-0.5,3.9,0.5,4.4,2.3c0.5,1.5,1.1,2.9,1.8,4.3c0.9,1.7,0.2,3.7-1.5,4.6C53.3,134.8,52.7,134.9,52.2,134.9L52.2,134.9z"/>
			<g>
				<path class="st6" d="M78,131.2c-1.2,0-2.1-0.9-2.1-2v-2c0-1.1,0.9-2.1,2.1-2.1l0,0c1.2,0,2.1,0.9,2.1,2v2
					C80.2,130.2,79.2,131.2,78,131.2L78,131.2z"/>
				<path class="st6" d="M86.7,122.4c-1.2,0-2.1-0.9-2.1-2v-2c0-1.1,0.9-2.1,2.1-2.1l0,0c1.2,0,2.1,0.9,2.1,2v2
					C88.8,121.5,87.8,122.4,86.7,122.4L86.7,122.4z"/>
				<path class="st6" d="M84.9,137.6c-1.2,0-2.1-0.9-2.1-2v-2c0-1.1,0.9-2.1,2.1-2.1l0,0c1.2,0,2.1,0.9,2.1,2v2
					C87,136.6,86.1,137.5,84.9,137.6L84.9,137.6z"/>
			</g>
		</g>
	</g>
</g>
<g>
	<g>
		<path class="st7" d="M138.4,80.6L138.4,80.6c-0.1-0.2-0.1-0.4-0.2-0.5c0-0.1-0.1-0.1-0.1-0.2c-0.3,1.7-1.4,3.1-2.9,4.1l-13.8-5.3
			l12.9-5.5c0.1-0.1,0.2-0.2,0.3-0.3c0.1,0.1,0.1,0.1,0.2,0.2c0,0,0,0,0.1,0l0.1,0.1c1.5,0.9,2.5,2.2,3,3.7c0-0.3,0.1-0.6,0.3-0.8
			c0.1-0.2,0.1-0.3,0.2-0.5c-0.6-1.3-1.7-2.4-3-3.2l0,0c0.5-2.4-0.2-4.8-2.1-6.6c-1.9-1.8-4.6-2.5-7.3-1.9l0,0
			c-1.4-2-3.8-3.2-6.3-3.2c-2.7,0-5.1,1.3-6.5,3.5c-2.5-0.5-5,0.2-6.8,1.9c-1.9,1.8-2.7,4.4-2.1,6.9l0,0c-2.1,1.3-3.4,3.6-3.4,6
			c0,2.5,1.4,4.9,3.7,6.3l0,0c-0.5,2.4,0.2,4.8,2,6.6c1.5,1.4,3.4,2.2,5.4,2.2c0.6,0,1.2-0.1,1.8-0.2l0,0c1.4,2,3.8,3.3,6.3,3.3l0,0
			c2.7,0,5.1-1.3,6.5-3.5l0,0c0.5,0.1,1,0.2,1.5,0.2c2,0,3.9-0.7,5.4-2.1c1.9-1.8,2.7-4.4,2-6.9l0,0c1.3-0.9,2.3-2.1,2.9-3.5
			c0,0,0-0.1-0.1-0.1C138.5,81,138.4,80.8,138.4,80.6z M107.2,66.8c1.7-1.6,4.1-2.2,6.4-1.6c0.3,0.1,0.5-0.1,0.6-0.3v-0.1
			c1.2-1.9,3.4-3.1,5.7-3.1c2.4,0,4.5,1.2,5.7,3.1c0.1,0.1,0.3,0.2,0.4,0.2s0.2,0,0.3-0.1l0,0c0.1,0,0.1,0,0.2,0
			c2.3-0.5,4.7,0.1,6.3,1.7c1.7,1.6,2.3,3.8,1.7,6c-0.1-0.1-0.4-0.2-0.6-0.1l-12.5,5.3l3.8-8.9c0.1-0.2,0-0.5-0.3-0.6
			c-0.2-0.1-0.5,0-0.6,0.3l-4,9.3l-5.6-12.3c-0.1-0.2-0.4-0.3-0.6-0.2c-0.2,0.1-0.4,0.4-0.3,0.6l5.5,12l-13.4-5.1
			c-0.2-0.1-0.4,0-0.5,0.1v-0.1C104.9,70.6,105.6,68.3,107.2,66.8z M105.2,84.5c-2-1.2-3.2-3.2-3.2-5.5s1.2-4.3,3.3-5.4l0.1-0.1
			c0,0,0.1,0.1,0.2,0.1l13.4,5.1L105.2,84.5C105.3,84.6,105.2,84.6,105.2,84.5z M113.9,93C113.8,93,113.8,93,113.9,93
			c-2.4,0.5-4.7-0.1-6.4-1.7c-1.6-1.5-2.2-3.7-1.8-5.8l13.9-5.9L113.9,93z M126.2,93L126.2,93L126.2,93c0,0.1-0.1,0.1-0.1,0.2
			c-1.2,1.9-3.4,3.1-5.7,3.1l0,0c-2.3,0-4.3-1.1-5.6-2.9l5.6-13.1l5.7,12.4c0,0.1,0.1,0.2,0.2,0.2C126.2,92.9,126.2,92.9,126.2,93z
			 M133.1,91c-1.6,1.6-3.9,2.2-6.2,1.7c0.1-0.1,0.1-0.3,0-0.4l-5.8-12.7l13.8,5.3V85C135.5,87.1,134.8,89.4,133.1,91z"/>
		<path class="st7" d="M105.6,73.7c-0.1,0-0.1-0.1-0.2-0.1l-0.1,0.1c-2,1.2-3.3,3.2-3.3,5.4c0,2.2,1.2,4.3,3.2,5.5c0,0,0,0,0.1,0
			l13.7-5.8L105.6,73.7z"/>
		<path class="st7" d="M105.7,85.4c-0.5,2.1,0.2,4.3,1.8,5.8c1.7,1.6,4,2.2,6.3,1.7h0.1l5.8-13.5L105.7,85.4z"/>
		<path class="st8" d="M139.5,82.2c-0.3-0.3-0.5-0.7-0.7-1c-0.6,1.4-1.6,2.6-2.9,3.5l0,0c0.6,2.5-0.1,5.1-2,6.9
			c-1.5,1.4-3.4,2.1-5.4,2.1c-0.5,0-1-0.1-1.5-0.2l0,0c-1.4,2.2-3.8,3.5-6.5,3.5l0,0c-2.5,0-4.9-1.3-6.3-3.3l0,0
			c-0.6,0.1-1.2,0.2-1.8,0.2c-2,0-3.9-0.8-5.4-2.2c-1.8-1.7-2.6-4.2-2-6.6l0,0c-2.3-1.3-3.7-3.7-3.7-6.3c0-2.4,1.3-4.7,3.4-6l0,0
			c-0.6-2.5,0.2-5.1,2.1-6.9c1.8-1.7,4.3-2.4,6.8-1.9c1.4-2.2,3.8-3.5,6.5-3.5c2.6,0,4.9,1.2,6.3,3.2l0,0c2.6-0.6,5.3,0.1,7.3,1.9
			c1.8,1.7,2.6,4.2,2.1,6.6l0,0c1.4,0.8,2.4,1.9,3,3.2c0.3-0.6,0.7-1.2,1.1-1.7c0.4-0.5,0.8-1,1.2-1.4c0.1-0.3,0.2-0.5,0.5-0.7
			c0.1-0.1,0.2-0.3,0.3-0.4c0.2-0.2,0.3-0.3,0.5-0.5l0.1-0.1l0,0c-3.4-8.5-12-14.5-22.1-14.5c-13.1,0-23.7,10.1-23.7,22.6
			s10.6,22.6,23.7,22.6c10.7,0,19.7-6.8,22.7-16.1c-0.1-0.1-0.2-0.2-0.2-0.2C141.6,84.2,140.4,83.3,139.5,82.2z"/>
		<g>
			<path class="st7" d="M120.4,80.2l-5.6,13.1c1.2,1.8,3.3,2.9,5.6,2.9l0,0c2.3,0,4.5-1.1,5.7-3.1l0.1-0.1l0,0c0,0,0-0.1,0.1-0.1
				c-0.1,0-0.2-0.1-0.2-0.2L120.4,80.2z"/>
			<path class="st7" d="M105.4,72.9c0.1-0.1,0.3-0.1,0.5-0.1l13.4,5.1l-5.5-12c-0.1-0.2,0-0.5,0.3-0.6c0.2-0.1,0.5,0,0.6,0.2
				l5.6,12.3l4-9.3c0.1-0.2,0.4-0.4,0.6-0.3s0.4,0.4,0.3,0.6l-3.8,8.9l12.5-5.3c0.2-0.1,0.4,0,0.6,0.1c0.6-2.2-0.1-4.4-1.7-6
				c-1.7-1.6-4-2.2-6.3-1.7c-0.1,0-0.1,0-0.2,0l0,0c-0.1,0-0.2,0.1-0.3,0.1c-0.2,0-0.3-0.1-0.4-0.2c-1.2-1.9-3.4-3.1-5.7-3.1
				c-2.3,0-4.5,1.1-5.7,3.1v0.1c-0.1,0.2-0.3,0.4-0.6,0.3c-2.3-0.6-4.7,0-6.4,1.6C105.6,68.3,104.9,70.6,105.4,72.9
				C105.4,72.8,105.4,72.9,105.4,72.9L105.4,72.9z"/>
			<path class="st7" d="M134.9,84.9l-13.8-5.3l5.8,12.7c0.1,0.1,0,0.3,0,0.4c2.3,0.5,4.6-0.1,6.2-1.7
				C134.8,89.4,135.5,87.1,134.9,84.9L134.9,84.9L134.9,84.9z"/>
			<path class="st7" d="M138,79.7L138,79.7c0-0.2-0.1-0.4-0.1-0.6l0,0c-0.1-0.3-0.1-0.7,0-1c0-0.3,0-0.6,0.1-0.8v-0.1
				c0-0.1,0-0.1,0-0.2c-0.4-1.5-1.5-2.9-3-3.7l-0.1-0.1c0,0,0,0-0.1,0c-0.1,0-0.2-0.1-0.2-0.2c0,0.1-0.1,0.2-0.3,0.3l-12.9,5.5
				l13.8,5.3c1.5-1,2.6-2.4,2.9-4.1C138.1,79.8,138.1,79.7,138,79.7z"/>
		</g>
	</g>
	<g>
		<g>
			<g>
				<path class="st9" d="M126,65.9c-0.4,0-0.9-0.2-1.1-0.6c-1.1-1.7-2.9-2.7-5-2.7s-3.9,1-5,2.7c-0.4,0.6-1.2,0.8-1.8,0.4
					c-0.6-0.4-0.8-1.1-0.4-1.7c1.6-2.5,4.3-3.9,7.3-3.9s5.7,1.5,7.3,3.9c0.4,0.6,0.2,1.4-0.4,1.7C126.5,65.9,126.2,65.9,126,65.9
					L126,65.9z"/>
			</g>
			<g>
				<path class="st9" d="M135,74.1c-0.1,0-0.2,0-0.3,0c-0.7-0.2-1.1-0.8-1-1.5c0.5-1.9-0.1-3.9-1.5-5.3c-1.5-1.4-3.5-1.9-5.5-1.5
					c-0.7,0.2-1.4-0.2-1.6-0.9c-0.2-0.7,0.3-1.4,1-1.5c2.9-0.7,5.9,0.1,8,2.1c2.1,2,2.9,4.9,2.2,7.7C136.1,73.8,135.6,74.1,135,74.1
					L135,74.1z"/>
			</g>
			<g>
				<path class="st9" d="M138.4,80.6C138.4,80.5,138.4,80.5,138.4,80.6c-0.1-0.2-0.1-0.4-0.2-0.5l0,0c-0.1-0.1-0.1-0.3-0.2-0.4l0,0
					c0-0.2-0.1-0.4-0.1-0.5l0,0c-0.1-0.3-0.1-0.7,0-1c0-0.3,0-0.6,0.1-0.8v-0.1c0-0.3,0.1-0.7,0.3-1c0.2-0.4,0.4-0.8,0.6-1.2
					c-0.7-1.2-1.7-2.2-3-2.9c-0.6-0.4-1.4-0.2-1.8,0.4c-0.4,0.6-0.2,1.4,0.4,1.7c1.8,1,2.8,2.8,2.8,4.8s-1.1,3.8-2.9,4.8
					c-0.6,0.4-0.8,1.1-0.5,1.7c0.2,0.4,0.7,0.6,1.1,0.6c0.2,0,0.5-0.1,0.7-0.2c1.6-0.9,2.7-2.2,3.4-3.7c-0.3-0.3-0.5-0.7-0.7-1
					C138.5,81,138.4,80.8,138.4,80.6z"/>
			</g>
			<g>
				<path class="st9" d="M128.4,94.8c-0.7,0-1.4-0.1-2.1-0.2c-0.7-0.2-1.1-0.9-1-1.5c0.2-0.7,0.9-1.1,1.6-0.9c2,0.5,4.1-0.1,5.6-1.4
					c1.5-1.4,2-3.4,1.5-5.3c-0.2-0.7,0.3-1.4,1-1.5c0.7-0.2,1.4,0.2,1.6,0.9c0.7,2.8-0.1,5.7-2.2,7.7
					C132.8,94,130.6,94.8,128.4,94.8L128.4,94.8z"/>
			</g>
			<g>
				<path class="st9" d="M120.4,98.2L120.4,98.2c-3,0-5.8-1.5-7.3-4c-0.4-0.6-0.2-1.4,0.5-1.7c0.6-0.4,1.4-0.2,1.8,0.4
					c1.1,1.7,2.9,2.7,5,2.7l0,0c2.1,0,3.9-1,5-2.7c0.4-0.6,1.2-0.8,1.8-0.4c0.6,0.4,0.8,1.1,0.4,1.7
					C126.1,96.7,123.4,98.2,120.4,98.2L120.4,98.2z"/>
			</g>
			<g>
				<path class="st9" d="M112.2,95.1c-2.2,0-4.4-0.8-6-2.4c-2.1-2-2.9-4.9-2.2-7.7c0.2-0.7,0.9-1.1,1.6-0.9s1.1,0.9,0.9,1.5
					c-0.5,1.9,0,3.9,1.5,5.3s3.5,2,5.5,1.5c0.7-0.2,1.4,0.2,1.6,0.9c0.2,0.7-0.3,1.4-1,1.5C113.6,95,112.9,95.1,112.2,95.1
					L112.2,95.1z"/>
			</g>
			<g>
				<path class="st9" d="M105,86.4c-0.2,0-0.5-0.1-0.7-0.2c-2.5-1.5-4.1-4.1-4.1-7c0-2.8,1.6-5.5,4.2-6.9c0.6-0.4,1.4-0.2,1.8,0.4
					s0.2,1.4-0.5,1.7c-1.8,1-2.9,2.8-2.9,4.8s1,3.8,2.8,4.8c0.6,0.4,0.8,1.1,0.4,1.7C105.8,86.2,105.4,86.4,105,86.4L105,86.4z"/>
			</g>
			<g>
				<path class="st9" d="M104.9,74.4c-0.6,0-1.1-0.4-1.3-1c-0.7-2.7,0.2-5.7,2.3-7.7c2.1-2,5.1-2.8,8.1-2.1c0.7,0.2,1.1,0.9,0.9,1.5
					c-0.2,0.7-0.9,1.1-1.6,0.9c-2-0.5-4.1,0-5.6,1.4s-2.1,3.4-1.6,5.3c0.2,0.7-0.3,1.4-1,1.5C105.2,74.4,105.1,74.4,104.9,74.4
					L104.9,74.4z"/>
			</g>
		</g>
		<g>
			<path class="st9" d="M142.6,85.2c-0.1-0.1-0.3-0.2-0.4-0.4c-2.6,9.3-11.5,16.1-22.1,16.1c-12.6,0-22.9-9.8-22.9-21.8
				s10.3-21.8,22.9-21.8c9.8,0,18.2,5.9,21.4,14.2l0.1-0.1c0.2-0.2,0.3-0.3,0.5-0.5l0.1-0.1c0.1-0.1,0.1-0.1,0,0
				c-0.2,0.2-0.1,0.1,0.2-0.3c0,0,0-0.1,0.1-0.1c0.3-0.3,0.6-0.5,0.8-0.8c0.1-0.1,0.1-0.1,0.2-0.2l0,0c-3.9-8.6-12.9-14.7-23.4-14.7
				C106,54.7,94.6,65.6,94.6,79s11.4,24.3,25.5,24.3c11.2,0,20.8-7,24.2-16.6C143.7,86.4,143.2,85.8,142.6,85.2z"/>
			<path class="st9" d="M114.2,94.8c-0.2,0-0.3,0-0.5-0.1c-0.7-0.3-1-1-0.7-1.6l10.5-24.6c0.3-0.6,1-0.9,1.7-0.7
				c0.7,0.3,1,1,0.7,1.6L115.5,94C115.2,94.5,114.8,94.8,114.2,94.8L114.2,94.8z"/>
			<path class="st9" d="M126.5,94c-0.5,0-1-0.3-1.2-0.8L113,66.5c-0.3-0.6,0-1.4,0.7-1.7c0.7-0.3,1.4,0,1.7,0.6l12.3,26.7
				c0.3,0.6,0,1.4-0.7,1.7C126.9,93.9,126.7,94,126.5,94L126.5,94z"/>
			<path class="st9" d="M135.3,86c-0.2,0-0.3,0-0.5-0.1l-29.5-11.3c-0.7-0.3-1-1-0.7-1.6s1-1,1.7-0.7l29.5,11.3c0.7,0.3,1,1,0.7,1.6
				C136.3,85.7,135.8,86,135.3,86L135.3,86z"/>
			<path class="st9" d="M105.3,86.6c-0.5,0-1-0.3-1.2-0.7c-0.3-0.6,0-1.4,0.7-1.7l28.9-12.3c0.7-0.3,1.4,0,1.7,0.6s0,1.4-0.7,1.7
				l-28.9,12.3C105.6,86.6,105.5,86.6,105.3,86.6L105.3,86.6z"/>
		</g>
	</g>
</g>
<g>
	<g>
		<path class="st7" d="M174.9,123.4c0-2.6-1.4-5-3.7-6.4l0,0c0.5-2.4-0.2-4.9-2.1-6.7c-1.9-1.9-4.6-2.6-7.3-2l0,0
			c-1.4-2.1-3.8-3.3-6.3-3.3c-2.7,0-5.1,1.3-6.5,3.6c-2.5-0.5-5,0.2-6.8,2c-1.9,1.8-2.7,4.5-2.1,7l0,0c-0.4,0.3-0.8,0.6-1.2,1
			c0.2,0.2,0.4,0.5,0.6,0.8c0.4-0.4,0.9-0.8,1.5-1.1l0.1-0.1c0,0,0.1,0.1,0.2,0.1l13.4,5.2l-13.7,5.9c0,0,0,0-0.1,0
			c-0.1-0.1-0.3-0.2-0.4-0.3c0,0.4-0.1,0.7-0.1,1.1l0,0l0,0c0,0.1,0,0.2-0.1,0.3c0,0.1,0,0.3,0,0.4c0,0.2,0,0.4-0.1,0.7
			c0,2,0.7,3.9,2.2,5.3c1.5,1.4,3.4,2.2,5.4,2.2c0.6,0,1.2-0.1,1.8-0.2l0,0c1.4,2.1,3.8,3.3,6.3,3.3l0,0c2.7,0,5.1-1.3,6.5-3.6l0,0
			c0.5,0.1,1,0.2,1.5,0.2c2,0,3.9-0.8,5.4-2.2c1.9-1.8,2.7-4.5,2-7l0,0C173.6,128.2,174.9,125.9,174.9,123.4z M141.5,117.4
			c-0.2-0.1-0.4,0-0.5,0.1v-0.1c-0.5-2.2,0.1-4.6,1.8-6.1c1.7-1.6,4.1-2.2,6.4-1.7c0.3,0.1,0.5-0.1,0.6-0.3v-0.1
			c1.2-2,3.4-3.1,5.7-3.1c2.4,0,4.5,1.2,5.7,3.2c0.1,0.1,0.3,0.2,0.4,0.2c0.1,0,0.2,0,0.3-0.1l0,0c0.1,0,0.1,0,0.2,0
			c2.3-0.6,4.7,0.1,6.3,1.7c1.7,1.6,2.3,3.9,1.7,6.1c-0.1-0.2-0.4-0.2-0.6-0.1l-12.5,5.4l3.8-9c0.1-0.2,0-0.5-0.3-0.6
			c-0.2-0.1-0.5,0-0.6,0.3l-4,9.5l-5.6-12.5c-0.1-0.2-0.4-0.3-0.6-0.2s-0.4,0.4-0.3,0.6l5.5,12.2L141.5,117.4z M149.5,137.9
			C149.5,137.9,149.4,137.9,149.5,137.9c-2.4,0.6-4.7-0.1-6.4-1.7c-1.6-1.6-2.2-3.8-1.8-6l13.9-6L149.5,137.9z M161.8,138L161.8,138
			c0,0.1-0.1,0.1-0.1,0.2c-1.2,2-3.4,3.1-5.7,3.1l0,0c-2.3,0-4.3-1.1-5.6-3L156,125l5.7,12.6c0,0.1,0.1,0.2,0.2,0.2
			C161.9,137.9,161.8,137.9,161.8,138z M168.8,135.9c-1.6,1.6-3.9,2.2-6.2,1.7c0.1-0.1,0.1-0.3,0-0.4l-5.8-12.9l13.8,5.4v0.1
			C171.1,132,170.4,134.3,168.8,135.9z M170.8,128.8l-13.8-5.4l12.9-5.6c0.1-0.1,0.2-0.2,0.3-0.3c0.1,0.1,0.1,0.1,0.2,0.2
			c0,0,0,0,0.1,0l0.1,0.1c2,1.2,3.2,3.3,3.2,5.6C173.9,125.6,172.8,127.6,170.8,128.8z"/>
		<path class="st7" d="M141.2,118.3c-0.1,0-0.1-0.1-0.2-0.1l-0.1,0.1c-0.6,0.3-1,0.7-1.5,1.1c0.4,0.7,0.6,1.5,0.8,2.4
			c0.8,2.2,0.5,4.8,0.2,7.3c0.1,0.1,0.3,0.2,0.4,0.3c0,0,0,0,0.1,0l13.7-5.9L141.2,118.3z"/>
		<path class="st7" d="M141.3,130.3c-0.5,2.2,0.2,4.4,1.8,6c1.7,1.6,4,2.3,6.3,1.7h0.1l5.8-13.7L141.3,130.3z"/>
		<path class="st8" d="M155.8,100.6c-10.4,0-19.3,6.6-22.5,15.7c1.4,0.2,2.8,0.7,4,1.2c0.7,0.3,1.2,0.7,1.5,1.1
			c0.4-0.4,0.8-0.7,1.2-1l0,0c-0.6-2.5,0.2-5.2,2.1-7c1.8-1.7,4.3-2.5,6.8-2c1.4-2.2,3.8-3.6,6.5-3.6c2.6,0,4.9,1.2,6.3,3.3l0,0
			c2.6-0.6,5.3,0.1,7.3,2c1.8,1.8,2.6,4.3,2.1,6.7l0,0c2.3,1.4,3.7,3.8,3.7,6.4c0,2.5-1.3,4.8-3.4,6.2l0,0c0.6,2.6-0.1,5.2-2,7
			c-1.5,1.4-3.4,2.2-5.4,2.2c-0.5,0-1-0.1-1.5-0.2l0,0c-1.4,2.2-3.8,3.6-6.5,3.6l0,0c-2.5,0-4.9-1.3-6.3-3.3l0,0
			c-0.6,0.1-1.2,0.2-1.8,0.2c-2,0-3.9-0.8-5.4-2.2s-2.2-3.3-2.2-5.3c-0.3,2.8-0.9,5.5-1.2,8.2c4.3,4.2,10.2,6.8,16.8,6.8
			c13.1,0,23.7-10.3,23.7-23C179.5,110.9,168.8,100.6,155.8,100.6z"/>
		<g>
			<path class="st7" d="M156,125l-5.6,13.3c1.2,1.9,3.3,3,5.6,3l0,0c2.3,0,4.5-1.2,5.7-3.1l0.1-0.1l0,0c0,0,0-0.1,0.1-0.1
				c-0.1,0-0.2-0.1-0.2-0.2L156,125z"/>
			<path class="st7" d="M141.1,117.5c0.1-0.1,0.3-0.2,0.5-0.1l13.4,5.2l-5.5-12.2c-0.1-0.2,0-0.5,0.3-0.6c0.2-0.1,0.5,0,0.6,0.2
				l5.6,12.5l4-9.5c0.1-0.2,0.4-0.4,0.6-0.3c0.2,0.1,0.4,0.4,0.3,0.6l-3.8,9l12.5-5.4c0.2-0.1,0.4,0,0.6,0.1
				c0.6-2.2-0.1-4.5-1.7-6.1c-1.7-1.6-4-2.3-6.3-1.7c-0.1,0-0.1,0-0.2,0l0,0c-0.1,0-0.2,0.1-0.3,0.1c-0.2,0-0.3-0.1-0.4-0.2
				c-1.2-2-3.4-3.2-5.7-3.2s-4.5,1.2-5.7,3.1v0.1c-0.1,0.3-0.3,0.4-0.6,0.3c-2.3-0.6-4.7,0-6.4,1.7
				C141.2,112.8,140.5,115.2,141.1,117.5C141.1,117.4,141.1,117.5,141.1,117.5L141.1,117.5z"/>
			<path class="st7" d="M170.5,129.7l-13.8-5.4l5.8,12.9c0.1,0.1,0,0.3,0,0.4c2.3,0.5,4.6-0.1,6.2-1.7
				C170.4,134.3,171.1,132,170.5,129.7C170.5,129.8,170.5,129.7,170.5,129.7L170.5,129.7z"/>
			<path class="st7" d="M170.7,117.8l-0.1-0.1c0,0,0,0-0.1,0s-0.2-0.1-0.2-0.2c0,0.1-0.1,0.2-0.3,0.3l-12.9,5.6l13.8,5.4
				c1.9-1.2,3.1-3.2,3.1-5.4C173.9,121.1,172.7,119,170.7,117.8L170.7,117.8z"/>
		</g>
	</g>
	<g>
		<g>
			<g>
				<path class="st9" d="M161.6,110.4c-0.4,0-0.9-0.2-1.1-0.6c-1.1-1.7-2.9-2.8-5-2.8c-2.1,0-3.9,1-5,2.8c-0.4,0.6-1.2,0.8-1.8,0.4
					c-0.6-0.4-0.8-1.1-0.4-1.8c1.6-2.5,4.3-4,7.3-4s5.7,1.5,7.3,4c0.4,0.6,0.2,1.4-0.4,1.8C162.1,110.4,161.9,110.4,161.6,110.4
					L161.6,110.4z"/>
			</g>
			<g>
				<path class="st9" d="M170.6,118.8c-0.1,0-0.2,0-0.3,0c-0.7-0.2-1.1-0.9-1-1.5c0.5-2-0.1-4-1.5-5.4c-1.5-1.4-3.5-2-5.5-1.5
					c-0.7,0.2-1.4-0.2-1.6-0.9c-0.2-0.7,0.3-1.4,1-1.5c2.9-0.7,5.9,0.1,8,2.2c2.1,2.1,2.9,5,2.2,7.8
					C171.8,118.4,171.2,118.8,170.6,118.8L170.6,118.8z"/>
			</g>
			<g>
				<path class="st9" d="M170.9,130.9c-0.4,0-0.9-0.2-1.1-0.6c-0.4-0.6-0.2-1.4,0.5-1.8c1.8-1,2.8-2.9,2.9-4.9c0-2-1.1-3.8-2.8-4.9
					c-0.6-0.4-0.8-1.2-0.4-1.8c0.4-0.6,1.2-0.8,1.8-0.4c2.6,1.5,4.1,4.2,4.1,7.1c0,2.9-1.6,5.5-4.1,7
					C171.4,130.8,171.1,130.9,170.9,130.9L170.9,130.9z"/>
			</g>
			<g>
				<path class="st9" d="M164,139.8c-0.7,0-1.4-0.1-2.1-0.2c-0.7-0.2-1.1-0.9-1-1.6c0.2-0.7,0.9-1.1,1.6-0.9c2,0.5,4.1-0.1,5.6-1.5
					s2-3.4,1.5-5.4c-0.2-0.7,0.3-1.4,1-1.5c0.7-0.2,1.4,0.3,1.6,0.9c0.7,2.8-0.1,5.8-2.2,7.8C168.4,139,166.3,139.8,164,139.8
					L164,139.8z"/>
			</g>
			<g>
				<path class="st9" d="M156,143.2L156,143.2c-3,0-5.8-1.6-7.3-4c-0.4-0.6-0.2-1.4,0.5-1.8c0.6-0.4,1.4-0.2,1.8,0.4
					c1.1,1.7,2.9,2.8,5,2.8l0,0c2.1,0,3.9-1,5-2.7c0.4-0.6,1.2-0.8,1.8-0.4c0.6,0.4,0.8,1.2,0.4,1.8
					C161.7,141.8,159,143.2,156,143.2L156,143.2z"/>
			</g>
			<g>
				<path class="st9" d="M150.8,138.4c-0.2-0.7-0.9-1.1-1.6-0.9c-2,0.5-4.1-0.1-5.5-1.5c-1.5-1.4-2-3.4-1.5-5.4
					c0.2-0.7-0.2-1.4-0.9-1.6c-0.3-0.1-0.5,0-0.8,0c-0.1,0.7-0.2,1.3-0.2,1.9c-0.1,1.2-0.3,2.4-0.5,3.6c0.4,1.2,1.1,2.3,2,3.2
					c1.6,1.6,3.8,2.4,6,2.4l0,0c0.7,0,1.3-0.1,2-0.2C150.5,139.7,151,139,150.8,138.4z"/>
			</g>
			<g>
				<path class="st9" d="M141.3,128.9c-0.3-0.2-0.5-0.3-0.7-0.5c-0.1,0.9-0.2,1.7-0.3,2.5c0,0.1,0,0.2,0,0.3c0.1,0,0.2,0.1,0.4,0.1
					c0.4,0,0.9-0.2,1.1-0.6C142.1,130.1,141.9,129.3,141.3,128.9z"/>
				<path class="st9" d="M141.8,117.4c-0.4-0.6-1.2-0.8-1.8-0.4c-0.6,0.3-1.1,0.7-1.6,1.2c0.7,0.6,1.2,1.3,1.5,2.2
					c0.4-0.5,0.9-0.9,1.5-1.2C142,118.8,142.2,118,141.8,117.4z"/>
			</g>
			<g>
				<path class="st9" d="M140.6,119c-0.6,0-1.1-0.4-1.3-1c-0.7-2.8,0.2-5.8,2.3-7.8c2.1-2,5.1-2.8,8.1-2.1c0.7,0.2,1.1,0.9,0.9,1.6
					c-0.2,0.7-0.9,1.1-1.6,0.9c-2-0.5-4.1,0-5.6,1.5c-1.5,1.4-2.1,3.4-1.6,5.4c0.2,0.7-0.3,1.4-1,1.5C140.8,119,140.7,119,140.6,119
					L140.6,119z"/>
			</g>
		</g>
		<g>
			<path class="st9" d="M155.8,99.1c-11.3,0-20.8,7.1-24.2,17c0.9,0.1,1.8,0.2,2.6,0.4c3.1-8.6,11.6-14.8,21.6-14.8
				c12.6,0,22.9,10,22.9,22.2c0,12.3-10.3,22.2-22.9,22.2c-6.6,0-12.5-2.7-16.7-7.1c-0.1,0.7-0.2,1.4-0.2,2.1c0,0.4-0.2,0.7-0.4,0.9
				c4.5,4.1,10.6,6.6,17.3,6.6c14.1,0,25.5-11.1,25.5-24.8S169.8,99.1,155.8,99.1z"/>
			<path class="st9" d="M149.9,139.8c-0.2,0-0.3,0-0.5-0.1c-0.7-0.3-1-1-0.7-1.7l10.5-25.1c0.3-0.7,1-1,1.7-0.7s1,1,0.7,1.7
				L151.1,139C150.9,139.5,150.4,139.8,149.9,139.8L149.9,139.8z"/>
			<path class="st9" d="M162.1,138.9c-0.5,0-1-0.3-1.2-0.8l-12.3-27.2c-0.3-0.6,0-1.4,0.7-1.7s1.4,0,1.7,0.7l12.3,27.2
				c0.3,0.6,0,1.4-0.7,1.7C162.5,138.9,162.3,138.9,162.1,138.9L162.1,138.9z"/>
			<path class="st9" d="M170.9,130.9c-0.2,0-0.3,0-0.5-0.1l-29.5-11.5c-0.7-0.3-1-1-0.7-1.7s1-1,1.7-0.7l29.5,11.5
				c0.7,0.3,1,1,0.7,1.7C171.9,130.6,171.4,130.9,170.9,130.9L170.9,130.9z"/>
			<path class="st9" d="M171,117.1c-0.3-0.6-1.1-0.9-1.7-0.6L140.5,129c-0.1,0.7-0.2,1.3-0.2,1.9c0,0.1,0,0.2,0,0.4
				c0.2,0.1,0.4,0.2,0.7,0.2c0.2,0,0.4,0,0.5-0.1l28.9-12.5C171,118.5,171.3,117.8,171,117.1z"/>
		</g>
	</g>
</g>
</svg>
